<svg width="19" height="25" viewBox="0 0 19 25" fill="none" xmlns="http://www.w3.org/2000/svg">
    <path d="M13.3506 0.5H0.912645C0.566359 0.5 0.285645 0.780714 0.285645 1.32543V24.0714C0.285645 24.2193 0.566359 24.5 0.912645 24.5H18.0872C18.4335 24.5 18.7142 24.2193 18.7142 24.0714V6.062C18.7142 5.76371 18.6744 5.66771 18.6041 5.597L13.6172 0.610143C13.5465 0.539857 13.4505 0.5 13.3506 0.5Z" fill="#E9E9E0"/>
    <path d="M13.5713 0.564697V5.64284H18.6494L13.5713 0.564697Z" fill="#D9D7CA"/>
    <path d="M5.86303 14.7817C5.71389 14.7817 5.57075 14.7333 5.4486 14.642C5.00246 14.3073 4.94246 13.9349 4.97075 13.6811C5.04875 12.9834 5.91146 12.2531 7.53575 11.5091C8.18032 10.0966 8.7936 8.35614 9.15917 6.902C8.73146 5.97114 8.31575 4.76343 8.61875 4.055C8.72503 3.80686 8.85746 3.61657 9.10475 3.53429C9.20246 3.50171 9.44932 3.46057 9.54017 3.46057C9.75617 3.46057 9.94603 3.73871 10.0806 3.91014C10.207 4.07129 10.4937 4.41286 9.92075 6.82529C10.4985 8.01843 11.317 9.23386 12.1013 10.0661C12.6632 9.96457 13.1466 9.91271 13.5405 9.91271C14.2116 9.91271 14.6183 10.0691 14.7842 10.3914C14.9213 10.658 14.8652 10.9696 14.617 11.3171C14.3783 11.651 14.0492 11.8276 13.6656 11.8276C13.1445 11.8276 12.5376 11.4984 11.8609 10.8483C10.645 11.1024 9.22517 11.5559 8.07746 12.0577C7.71917 12.818 7.37589 13.4304 7.05617 13.8796C6.61689 14.4946 6.23803 14.7817 5.86303 14.7817ZM7.00389 12.5849C6.08803 13.0996 5.71475 13.5226 5.68775 13.7609C5.68346 13.8003 5.67189 13.904 5.87246 14.0574C5.93632 14.0373 6.30917 13.8671 7.00389 12.5849ZM12.8483 10.6811C13.1976 10.9499 13.2829 11.0857 13.5113 11.0857C13.6116 11.0857 13.8975 11.0814 14.0299 10.8967C14.0937 10.8071 14.1186 10.7497 14.1285 10.7189C14.0757 10.691 14.0059 10.6344 13.6249 10.6344C13.4085 10.6349 13.1363 10.6443 12.8483 10.6811ZM9.64689 7.86029C9.34046 8.92057 8.93589 10.0653 8.50089 11.102C9.3966 10.7544 10.3703 10.451 11.2849 10.2363C10.7063 9.56429 10.1282 8.72514 9.64689 7.86029ZM9.38675 4.23371C9.34475 4.24786 8.81675 4.98671 9.42789 5.612C9.8346 4.70557 9.40517 4.22771 9.38675 4.23371Z" fill="#CC4B4C"/>
    <path d="M18.0872 24.5H0.912645C0.566359 24.5 0.285645 24.2193 0.285645 23.873V17.2143H18.7142V23.873C18.7142 24.2193 18.4335 24.5 18.0872 24.5Z" fill="#CC4B4C"/>
    <path d="M4.95084 23.2143H4.24756V18.896H5.48956C5.67299 18.896 5.8547 18.9251 6.03427 18.9839C6.21385 19.0426 6.37499 19.1304 6.5177 19.2474C6.66042 19.3644 6.7757 19.5063 6.86356 19.6721C6.95142 19.838 6.99556 20.0244 6.99556 20.2319C6.99556 20.4509 6.95827 20.6489 6.88413 20.8267C6.80999 21.0046 6.70627 21.1541 6.57342 21.275C6.44056 21.3959 6.28027 21.4897 6.09299 21.5561C5.9057 21.6226 5.69827 21.6556 5.47199 21.6556H4.95042V23.2143H4.95084ZM4.95084 19.4291V21.14H5.59542C5.68113 21.14 5.76599 21.1254 5.85042 21.0959C5.93442 21.0667 6.01156 21.0187 6.08184 20.9523C6.15213 20.8859 6.2087 20.7933 6.25156 20.6741C6.29442 20.555 6.31584 20.4076 6.31584 20.2319C6.31584 20.1616 6.30599 20.0801 6.2867 19.9889C6.26699 19.8971 6.22713 19.8093 6.1667 19.7253C6.10584 19.6413 6.02099 19.571 5.9117 19.5144C5.80242 19.4579 5.65756 19.4296 5.47799 19.4296H4.95084V19.4291Z" fill="white"/>
    <path d="M11.3082 20.9351C11.3082 21.2904 11.2701 21.5943 11.1938 21.8463C11.1175 22.0983 11.0211 22.3091 10.9036 22.4793C10.7862 22.6494 10.6546 22.7831 10.5081 22.8809C10.3615 22.9786 10.2201 23.0514 10.0833 23.1007C9.94663 23.1496 9.82149 23.1809 9.70835 23.1946C9.59521 23.2074 9.51121 23.2143 9.45635 23.2143H7.82178V18.896H9.12249C9.48592 18.896 9.80521 18.9539 10.0803 19.0687C10.3555 19.1836 10.5843 19.3374 10.7661 19.5286C10.9478 19.7197 11.0832 19.9379 11.1732 20.1817C11.2632 20.426 11.3082 20.6771 11.3082 20.9351ZM9.22235 22.6987C9.69892 22.6987 10.0426 22.5466 10.2535 22.2419C10.4643 21.9371 10.5698 21.4957 10.5698 20.9176C10.5698 20.738 10.5483 20.5601 10.5055 20.3844C10.4622 20.2087 10.3795 20.0497 10.2565 19.907C10.1335 19.7643 9.96635 19.649 9.75549 19.5611C9.54463 19.4733 9.27121 19.4291 8.93521 19.4291H8.52506V22.6987H9.22235Z" fill="white"/>
    <path d="M13.0425 19.4291V20.7886H14.8472V21.269H13.0425V23.2143H12.3276V18.896H15.0285V19.4291H13.0425Z" fill="white"/>
</svg>
