<svg width="16" height="16" viewBox="0 0 16 16" fill="none" xmlns="http://www.w3.org/2000/svg">
    <g clip-path="url(#clip0)">
        <path d="M1.99999 5.14294H0.285677C0.208308 5.14294 0.141353 5.17109 0.0848119 5.22766C0.0282394 5.28427 0 5.35125 0 5.42865V7.14294C0 7.22027 0.0282394 7.28739 0.0848119 7.34383C0.141385 7.40022 0.208308 7.42864 0.285677 7.42864H1.99999C2.07736 7.42864 2.14432 7.40034 2.20086 7.34383C2.25743 7.28726 2.28567 7.22027 2.28567 7.14294V5.42865C2.28567 5.35125 2.2574 5.28427 2.20086 5.22766C2.14432 5.17118 2.07736 5.14294 1.99999 5.14294Z" fill="#3561A6"/>
        <path d="M1.99999 12.0001H0.285677C0.208308 12.0001 0.141353 12.0281 0.0848119 12.0847C0.0282394 12.1413 0 12.2082 0 12.2856V14C0 14.0773 0.0282394 14.1442 0.0848119 14.2008C0.141385 14.2575 0.208308 14.2857 0.285677 14.2857H1.99999C2.07736 14.2857 2.14432 14.2574 2.20086 14.2008C2.25743 14.1443 2.28567 14.0773 2.28567 14V12.2856C2.28567 12.2082 2.2574 12.1413 2.20086 12.0847C2.14432 12.0283 2.07736 12.0001 1.99999 12.0001Z" fill="#3561A6"/>
        <path d="M1.99999 8.57135H0.285677C0.208308 8.57135 0.141353 8.59981 0.0848119 8.65623C0.0282706 8.71264 0 8.77985 0 8.85712V10.5714C0 10.6489 0.0282394 10.7158 0.0848119 10.7724C0.141385 10.8289 0.208308 10.857 0.285677 10.857H1.99999C2.07736 10.857 2.14432 10.829 2.20086 10.7724C2.25743 10.7158 2.28567 10.6489 2.28567 10.5714V8.85712C2.28567 8.77985 2.2574 8.71286 2.20086 8.65623C2.14432 8.59971 2.07736 8.57135 1.99999 8.57135Z" fill="#3561A6"/>
        <path d="M1.99999 1.71429H0.285677C0.208308 1.71429 0.141353 1.74253 0.0848119 1.79911C0.0282706 1.85568 0 1.92263 0 2V3.71429C0 3.79169 0.0282394 3.85861 0.0848119 3.91518C0.141385 3.97176 0.208308 4 0.285677 4H1.99999C2.07736 4 2.14432 3.97185 2.20086 3.91518C2.25743 3.85861 2.28567 3.79169 2.28567 3.71429V2C2.28567 1.9226 2.2574 1.85568 2.20086 1.79911C2.14432 1.74269 2.07736 1.71429 1.99999 1.71429Z" fill="#3561A6"/>
        <path d="M15.7142 12.0001H3.71427C3.6369 12.0001 3.56994 12.0281 3.5134 12.0847C3.45683 12.1413 3.42859 12.2082 3.42859 12.2857V14.0001C3.42859 14.0773 3.45683 14.1442 3.5134 14.2008C3.56997 14.2575 3.6368 14.2857 3.71427 14.2857H15.7142C15.7917 14.2857 15.8586 14.2575 15.9152 14.2008C15.9718 14.1442 16 14.0773 16 14.0001V12.2857C16 12.2082 15.9717 12.1413 15.9152 12.0847C15.8586 12.0283 15.7917 12.0001 15.7142 12.0001Z" fill="#3561A6"/>
        <path d="M15.7142 8.57135H3.71427C3.6369 8.57135 3.56994 8.59981 3.5134 8.65623C3.45686 8.71264 3.42859 8.77985 3.42859 8.85712V10.5714C3.42859 10.6489 3.45683 10.7158 3.5134 10.7724C3.56997 10.8289 3.6368 10.857 3.71427 10.857H15.7142C15.7917 10.857 15.8586 10.829 15.9152 10.7724C15.9718 10.7158 16 10.6489 16 10.5714V8.85712C16 8.77985 15.9717 8.71286 15.9152 8.65623C15.8586 8.59981 15.7917 8.57135 15.7142 8.57135Z" fill="#3561A6"/>
        <path d="M15.9152 1.79911C15.8586 1.74266 15.7917 1.71429 15.7142 1.71429H3.71427C3.6369 1.71429 3.56994 1.74253 3.5134 1.79911C3.45686 1.85568 3.42859 1.9226 3.42859 2V3.71429C3.42859 3.79169 3.45683 3.85861 3.5134 3.91518C3.56997 3.97176 3.6368 4 3.71427 4H15.7142C15.7917 4 15.8586 3.97185 15.9152 3.91518C15.9718 3.85861 16 3.79169 16 3.71429V2C15.9999 1.92263 15.9717 1.85568 15.9152 1.79911Z" fill="#3561A6"/>
        <path d="M15.7142 5.14294H3.71427C3.6369 5.14294 3.56994 5.17109 3.5134 5.22766C3.45683 5.28427 3.42859 5.35125 3.42859 5.42865V7.14294C3.42859 7.22027 3.45683 7.28726 3.5134 7.34383C3.56997 7.40022 3.6368 7.42864 3.71427 7.42864H15.7142C15.7917 7.42864 15.8586 7.40034 15.9152 7.34383C15.9718 7.28726 16 7.22027 16 7.14294V5.42865C16 5.35125 15.9717 5.28427 15.9152 5.22766C15.8586 5.17118 15.7917 5.14294 15.7142 5.14294Z" fill="#3561A6"/>
    </g>
    <defs>
        <clipPath id="clip0">
            <rect width="16" height="16" fill="white"/>
        </clipPath>
    </defs>
</svg>
