<svg width="24" height="24" viewBox="0 0 24 24" fill="rgba(255, 255, 255, 1)" xmlns="http://www.w3.org/2000/svg">
    <path d="M2.86947 13.4155H0.347659C0.155935 13.4155 0 13.574 0 13.7657V21.0729C0 21.2646 0.155935 21.4206 0.347659 21.4206H2.86947C3.06119 21.4206 3.21713 21.2646 3.21713 21.0729V13.7657C3.21841 13.574 3.06247 13.4155 2.86947 13.4155Z" fill="#3561A6"/>
    <path d="M23.6511 13.4155H21.1293C20.9376 13.4155 20.783 13.574 20.783 13.7657V21.0729C20.783 21.2646 20.9376 21.4206 21.1293 21.4206H23.6511C23.8454 21.4206 24.0001 21.2646 24.0001 21.0729V13.7657C24.0001 13.574 23.8454 13.4155 23.6511 13.4155Z" fill="#3561A6"/>
    <path d="M7.55007 9.23846H5.02826C4.83653 9.23846 4.67932 9.3944 4.67932 9.5874V21.0704C4.67932 21.2621 4.83653 21.418 5.02826 21.418H7.55007C7.74307 21.418 7.899 21.2621 7.899 21.0704V9.5874C7.899 9.39312 7.74307 9.23846 7.55007 9.23846Z" fill="#3561A6"/>
    <path d="M18.2406 9.23846H15.7188C15.5271 9.23846 15.3724 9.3944 15.3724 9.5874V21.0704C15.3724 21.2621 15.5271 21.418 15.7188 21.418H18.2406C18.4349 21.418 18.5896 21.2621 18.5896 21.0704V9.5874C18.5908 9.39312 18.4362 9.23846 18.2406 9.23846Z" fill="#3561A6"/>
    <path d="M12.7943 11.782H10.2712C10.0795 11.782 9.92358 11.9393 9.92358 12.1297V21.0692C9.92358 21.2609 10.0795 21.4168 10.2712 21.4168H12.7943C12.9886 21.4168 13.1433 21.2609 13.1433 21.0692V12.1297C13.1433 11.9393 12.9886 11.782 12.7943 11.782Z" fill="#3561A6"/>
    <path d="M1.60921 8.87933C2.35182 8.87933 2.95256 8.2786 2.95256 7.53599C2.95256 7.40689 2.92828 7.28547 2.89376 7.16788L5.71977 5.13433C5.8936 5.21613 6.08533 5.2647 6.28983 5.2647C6.68479 5.2647 7.035 5.09215 7.28169 4.82118L9.9492 6.36519C9.93387 6.44444 9.92364 6.52624 9.92364 6.60804C9.92364 7.34938 10.5257 7.95139 11.267 7.95139C11.9815 7.95139 12.5605 7.39155 12.6014 6.68729L16.1981 5.63536C16.4423 5.97024 16.8346 6.19136 17.282 6.19136C17.5785 6.19136 17.8482 6.09294 18.0706 5.92934L21.0935 7.97951C21.0679 8.0856 21.0462 8.19679 21.0462 8.31183C21.0462 9.05444 21.6482 9.65645 22.3895 9.65645C23.1309 9.65645 23.7354 9.05444 23.7354 8.31183C23.7354 7.56922 23.1309 6.96848 22.3895 6.96848C22.093 6.96848 21.8233 7.0669 21.6009 7.22923L18.5806 5.18289C18.6062 5.07553 18.6253 4.96561 18.6253 4.85057C18.6253 4.10796 18.0259 3.50723 17.282 3.50723C16.5675 3.50723 15.9885 4.06706 15.9463 4.77133L12.3509 5.82197C12.1067 5.48582 11.7131 5.26598 11.267 5.26598C10.9359 5.26598 10.6381 5.38868 10.4042 5.58679L7.62807 3.97759C7.62807 3.95842 7.63318 3.9418 7.63318 3.92391C7.63318 3.1813 7.03244 2.57928 6.28983 2.57928C5.54722 2.57928 4.94649 3.18002 4.94649 3.92263C4.94649 4.12458 4.99506 4.31375 5.07431 4.4863L2.371 6.43166C2.15499 6.28083 1.89297 6.19264 1.60921 6.19264C0.866604 6.19264 0.265869 6.79465 0.265869 7.53599C0.265869 8.2786 0.866604 8.87933 1.60921 8.87933Z" fill="#3561A6"/>
</svg>
