<?xml version="1.0" encoding="UTF-8" standalone="no"?>
<svg
   xmlns:dc="http://purl.org/dc/elements/1.1/"
   xmlns:cc="http://creativecommons.org/ns#"
   xmlns:rdf="http://www.w3.org/1999/02/22-rdf-syntax-ns#"
   xmlns:svg="http://www.w3.org/2000/svg"
   xmlns="http://www.w3.org/2000/svg"
   xmlns:sodipodi="http://sodipodi.sourceforge.net/DTD/sodipodi-0.dtd"
   xmlns:inkscape="http://www.inkscape.org/namespaces/inkscape"
   width="24"
   height="19"
   viewBox="0 0 24 19"
   fill="rgba(255, 255, 255, 1)"
   version="1.1"
   id="svg940"
   sodipodi:docname="compare.svg"
   inkscape:version="0.92.4 (f8dce91, 2019-08-02)">
  <metadata
     id="metadata946">
    <rdf:RDF>
      <cc:Work
         rdf:about="">
        <dc:format>image/svg+xml</dc:format>
        <dc:type
           rdf:resource="http://purl.org/dc/dcmitype/StillImage" />
        <dc:title></dc:title>
      </cc:Work>
    </rdf:RDF>
  </metadata>
  <defs
     id="defs944" />
  <sodipodi:namedview
     pagecolor="#ffffff"
     bordercolor="#666666"
     borderopacity="1"
     objecttolerance="10"
     gridtolerance="10"
     guidetolerance="10"
     inkscape:pageopacity="0"
     inkscape:pageshadow="2"
     inkscape:window-width="1853"
     inkscape:window-height="1025"
     id="namedview942"
     showgrid="false"
     units="px"
     inkscape:zoom="9.8333333"
     inkscape:cx="12"
     inkscape:cy="12"
     inkscape:window-x="67"
     inkscape:window-y="27"
     inkscape:window-maximized="1"
     inkscape:current-layer="svg940" />
  <g
     id="g1497"
     transform="matrix(1,0,0,1.0084219,0,-2.601)"
     style="fill:#ffffff">
    <path
       style="fill:#ffffff"
       id="path928"
       d="M 2.86947,13.4155 H 0.347659 C 0.155935,13.4155 0,13.574 0,13.7657 v 7.3072 c 0,0.1917 0.155935,0.3477 0.347659,0.3477 H 2.86947 c 0.19172,0 0.34766,-0.156 0.34766,-0.3477 V 13.7657 C 3.21841,13.574 3.06247,13.4155 2.86947,13.4155 Z"
       inkscape:connector-curvature="0" />
    <path
       style="fill:#ffffff"
       id="path930"
       d="m 23.6511,13.4155 h -2.5218 c -0.1917,0 -0.3463,0.1585 -0.3463,0.3502 v 7.3072 c 0,0.1917 0.1546,0.3477 0.3463,0.3477 h 2.5218 c 0.1943,0 0.349,-0.156 0.349,-0.3477 v -7.3072 c 0,-0.1917 -0.1547,-0.3502 -0.349,-0.3502 z"
       inkscape:connector-curvature="0" />
    <path
       style="fill:#ffffff"
       id="path932"
       d="M 7.55007,9.23846 H 5.02826 c -0.19173,0 -0.34894,0.15594 -0.34894,0.34894 v 11.483 c 0,0.1917 0.15721,0.3476 0.34894,0.3476 h 2.52181 c 0.193,0 0.34893,-0.1559 0.34893,-0.3476 V 9.5874 C 7.899,9.39312 7.74307,9.23846 7.55007,9.23846 Z"
       inkscape:connector-curvature="0" />
    <path
       style="fill:#ffffff"
       id="path934"
       d="m 18.2406,9.23846 h -2.5218 c -0.1917,0 -0.3464,0.15594 -0.3464,0.34894 v 11.483 c 0,0.1917 0.1547,0.3476 0.3464,0.3476 h 2.5218 c 0.1943,0 0.349,-0.1559 0.349,-0.3476 V 9.5874 C 18.5908,9.39312 18.4362,9.23846 18.2406,9.23846 Z"
       inkscape:connector-curvature="0" />
    <path
       style="fill:#ffffff"
       id="path936"
       d="m 12.7943,11.782 h -2.5231 c -0.1917,0 -0.34762,0.1573 -0.34762,0.3477 v 8.9395 c 0,0.1917 0.15592,0.3476 0.34762,0.3476 h 2.5231 c 0.1943,0 0.349,-0.1559 0.349,-0.3476 v -8.9395 c 0,-0.1904 -0.1547,-0.3477 -0.349,-0.3477 z"
       inkscape:connector-curvature="0" />
    <path
       style="fill:#ffffff"
       id="path938"
       d="m 1.60921,8.87933 c 0.74261,0 1.34335,-0.60073 1.34335,-1.34334 0,-0.1291 -0.02428,-0.25052 -0.0588,-0.36811 L 5.71977,5.13433 C 5.8936,5.21613 6.08533,5.2647 6.28983,5.2647 6.68479,5.2647 7.035,5.09215 7.28169,4.82118 L 9.9492,6.36519 C 9.93387,6.44444 9.92364,6.52624 9.92364,6.60804 c 0,0.74134 0.60206,1.34335 1.34336,1.34335 0.7145,0 1.2935,-0.55984 1.3344,-1.2641 l 3.5967,-1.05193 c 0.2442,0.33488 0.6365,0.556 1.0839,0.556 0.2965,0 0.5662,-0.09842 0.7886,-0.26202 l 3.0229,2.05017 c -0.0256,0.10609 -0.0473,0.21728 -0.0473,0.33232 0,0.74261 0.602,1.34462 1.3433,1.34462 0.7414,0 1.3459,-0.60201 1.3459,-1.34462 0,-0.74261 -0.6045,-1.34335 -1.3459,-1.34335 -0.2965,0 -0.5662,0.09842 -0.7886,0.26075 L 18.5806,5.18289 c 0.0256,-0.10736 0.0447,-0.21728 0.0447,-0.33232 0,-0.74261 -0.5994,-1.34334 -1.3433,-1.34334 -0.7145,0 -1.2935,0.55983 -1.3357,1.2641 L 12.3509,5.82197 C 12.1067,5.48582 11.7131,5.26598 11.267,5.26598 c -0.3311,0 -0.6289,0.1227 -0.8628,0.32081 L 7.62807,3.97759 c 0,-0.01917 0.00511,-0.03579 0.00511,-0.05368 0,-0.74261 -0.60074,-1.34463 -1.34335,-1.34463 -0.74261,0 -1.34334,0.60074 -1.34334,1.34335 0,0.20195 0.04857,0.39112 0.12782,0.56367 L 2.371,6.43166 C 2.15499,6.28083 1.89297,6.19264 1.60921,6.19264 c -0.742606,0 -1.343341,0.60201 -1.343341,1.34335 0,0.74261 0.600735,1.34334 1.343341,1.34334 z"
       inkscape:connector-curvature="0" />
  </g>
</svg>
