<?xml version="1.0" encoding="UTF-8" standalone="no"?>
<svg
   xmlns:dc="http://purl.org/dc/elements/1.1/"
   xmlns:cc="http://creativecommons.org/ns#"
   xmlns:rdf="http://www.w3.org/1999/02/22-rdf-syntax-ns#"
   xmlns:svg="http://www.w3.org/2000/svg"
   xmlns="http://www.w3.org/2000/svg"
   id="svg8"
   version="1.1"
   viewBox="0 0 35.454166 26.458334"
   height="100"
   width="134">
  <defs
     id="defs2" />
  <metadata
     id="metadata5">
    <rdf:RDF>
      <cc:Work
         rdf:about="">
        <dc:format>image/svg+xml</dc:format>
        <dc:type
           rdf:resource="http://purl.org/dc/dcmitype/StillImage" />
        <dc:title></dc:title>
      </cc:Work>
    </rdf:RDF>
  </metadata>
  <g
     transform="translate(0,-270.54165)"
     id="layer1">
    <path
       id="path828"
       d="m 12.898414,296.97044 c -0.05828,-0.0214 -0.292487,-0.10511 -0.520444,-0.18613 -2.6994814,-0.95867 -5.1170833,-2.19013 -7.0073799,-3.56936 -0.7954178,-0.58038 -1.3153583,-1.02496 -2.001214,-1.7112 -1.0532565,-1.05386 -1.765458,-2.02485 -2.3407595,-3.19139 -0.35062895,-0.71093 -0.55669877,-1.26694 -0.73886868,-1.99345 -0.28435228,-1.13413 -0.36723304,-2.4238 -0.21378484,-3.32703 0.18092604,-1.06509 0.68514291,-2.12728 1.48413872,-3.12659 0.277937,-0.3476 1.0198385,-1.09531 1.3960865,-1.40705 1.9011979,-1.57509 4.4365809,-2.77773 7.4833637,-3.54967 1.042439,-0.26409 2.664568,-0.57249 3.642268,-0.69242 0.293688,-0.0361 0.971437,-0.0945 1.100581,-0.095 l 0.07953,-3.2e-4 v 2.45888 2.45886 H 11.139077 7.0162273 v 3.56822 c 0,1.96252 0.00699,4.0992 0.014116,4.74817 l 0.014116,1.17993 h 3.7749187 c 2.076198,0 3.925152,0.007 4.108775,0.014 l 0.333857,0.014 v 2.45557 2.45553 h -0.551136 -0.551108 v -2.16205 -2.16205 l -3.937382,-0.006 -3.9373668,-0.006 -0.00559,-5.34697 -0.00559,-5.347 h 3.9427068 3.942721 v -1.56857 c 0,-1.0274 -0.007,-1.56859 -0.0211,-1.56859 -0.06121,0 -0.955072,0.13962 -1.303716,0.2036 -4.6798421,0.85923 -8.4042914,2.90124 -10.0361339,5.50251 -0.1730852,0.27589 -0.4406237,0.8123 -0.5406398,1.0839 -0.4696529,1.27543 -0.4525037,2.53975 0.051573,3.79728 0.097276,0.24283 0.3376448,0.70662 0.5000938,0.96515 0.4832383,0.76905 1.2712204,1.60593 2.1292249,2.26135 1.919046,1.46591 4.4822982,2.53703 7.52236,3.14342 0.295855,0.059 0.54623,0.1125 0.556419,0.1188 0.02264,0.014 0.02516,4.60217 0.0028,4.61585 -0.0084,0.006 -0.06359,-0.008 -0.121875,-0.0294 z m 3.084198,-5.93425 v -2.45888 h 0.551108 0.551123 v 2.45888 2.45886 H 16.53372 15.982612 Z m 1.822944,-0.0212 v -2.45888 h 0.561716 0.56173 v 2.45888 2.45886 h -0.56173 -0.561716 z m 1.886536,0 v -2.45888 l 1.637489,-0.004 c 0.900619,-0.003 1.675631,-0.006 1.722271,-0.007 0.04668,-0.001 1.16026,-0.004 2.474767,-0.007 l 2.38997,-0.004 v -4.73756 -4.73756 l -3.778384,-7e-5 c -2.078127,-4e-5 -3.928632,-0.007 -4.112241,-0.014 l -0.333872,-0.014 v -2.46614 -2.46615 h 0.551137 0.551122 v 2.17265 2.17264 l 3.937367,0.006 3.93738,0.006 0.0056,5.34699 0.0056,5.34698 h -3.94272 -3.942706 v 1.57026 1.57029 l 0.05828,-0.0112 c 0.032,-0.007 0.167983,-0.0267 0.302046,-0.0453 0.356374,-0.0495 0.828556,-0.12915 1.250633,-0.21097 4.803646,-0.93135 8.583833,-3.15787 9.994036,-5.88644 0.438961,-0.84933 0.626791,-1.59459 0.626791,-2.48695 0,-0.45525 -0.03773,-0.77538 -0.141414,-1.19763 -0.200102,-0.81544 -0.630704,-1.65604 -1.231304,-2.40362 -0.253981,-0.31614 -0.949774,-1.01815 -1.277971,-1.28938 -1.94943,-1.61107 -4.62578,-2.7789 -7.853545,-3.42691 l -0.593527,-0.11922 0.0028,-0.69939 c 0.0013,-0.38467 0.0042,-1.43567 0.0056,-2.33558 l 0.0028,-1.63618 0.386857,0.13474 c 1.852741,0.6451 3.396895,1.35301 4.923033,2.25693 3.351793,1.98522 5.817978,4.55722 6.951656,7.24995 0.524384,1.24553 0.782014,2.5133 0.747464,3.67821 -0.09225,3.10755 -2.836564,6.02334 -7.391762,7.85348 -1.586867,0.63755 -3.317565,1.11774 -5.150907,1.42913 -0.996512,0.16926 -2.295056,0.3303 -2.663324,0.3303 h -0.04989 z m -5.319518,-3.26552 c -0.245526,-0.0502 -0.46458,-0.23204 -0.555344,-0.46092 -0.06778,-0.17077 -0.06792,-0.53237 -5.59e-4,-0.7048 0.135293,-0.34566 0.397394,-0.502 0.807913,-0.48183 0.226587,0.0112 0.363319,0.0637 0.487137,0.18759 0.07855,0.0785 0.157586,0.22411 0.142728,0.26281 -0.0084,0.0213 -0.237866,0.0832 -0.315659,0.0851 -0.0084,2.4e-4 -0.03354,-0.033 -0.0552,-0.0738 -0.155208,-0.29205 -0.635917,-0.22127 -0.724193,0.10665 -0.03997,0.14871 -0.01859,0.49901 0.03704,0.60346 0.110834,0.20836 0.413538,0.26737 0.587587,0.1146 0.03983,-0.0349 0.08875,-0.10649 0.108877,-0.15894 0.01999,-0.0524 0.04682,-0.0917 0.05968,-0.0871 0.01258,0.004 0.08764,0.0256 0.166321,0.0465 0.164936,0.044 0.170485,0.0573 0.08944,0.21426 -0.06988,0.13528 -0.198242,0.25097 -0.334919,0.30182 -0.133057,0.0495 -0.372432,0.0709 -0.500723,0.0446 z m 4.992971,0.001 c -0.425878,-0.0767 -0.679454,-0.43493 -0.640642,-0.90507 0.03033,-0.36664 0.229551,-0.62605 0.55129,-0.71757 0.190598,-0.0542 0.515315,-0.0365 0.67399,0.0369 0.232779,0.10762 0.386926,0.29826 0.438793,0.54269 0.0949,0.4475 -0.100073,0.8587 -0.473581,0.99844 -0.134034,0.0502 -0.399379,0.0717 -0.54985,0.0446 z m 0.461561,-0.35385 c 0.128863,-0.0906 0.188403,-0.21289 0.199892,-0.41117 0.02292,-0.39517 -0.134594,-0.59933 -0.462078,-0.59933 -0.306939,0 -0.466103,0.18358 -0.466103,0.53756 0,0.26132 0.07156,0.40055 0.254149,0.49454 0.101889,0.0524 0.133616,0.0587 0.251578,0.0499 0.104404,-0.008 0.154873,-0.024 0.222562,-0.0716 z m 3.810459,0.35211 c -0.411859,-0.0809 -0.655303,-0.47133 -0.594728,-0.95371 0.03578,-0.28553 0.189395,-0.51573 0.419323,-0.62868 0.110555,-0.0544 0.138927,-0.0587 0.37397,-0.0587 0.285709,0 0.377436,0.028 0.529081,0.16107 0.08247,0.0724 0.192779,0.27158 0.16449,0.2969 -0.03102,0.0277 -0.332851,0.0837 -0.339741,0.0629 -0.0042,-0.0112 -0.02781,-0.0517 -0.05325,-0.0894 -0.155936,-0.23139 -0.547949,-0.19915 -0.671069,0.0552 -0.09113,0.18822 -0.07688,0.55793 0.02739,0.71504 0.02557,0.0386 0.08917,0.0917 0.141051,0.11783 0.200814,0.10146 0.411637,0.0337 0.515873,-0.16583 0.03298,-0.0633 0.06652,-0.11503 0.07449,-0.11489 0.05646,4e-4 0.321726,0.0867 0.321558,0.10469 -4.75e-4,0.0542 -0.10734,0.24515 -0.175251,0.31303 -0.165846,0.16584 -0.456516,0.23905 -0.733223,0.18467 z m 1.589829,-0.008 c -0.257321,-0.0584 -0.423474,-0.22136 -0.460218,-0.45115 l -0.01397,-0.0836 0.100491,-0.014 c 0.214623,-0.0295 0.233491,-0.0238 0.288447,0.0858 0.06387,0.12747 0.136831,0.17934 0.269747,0.19212 0.223904,0.0215 0.384326,-0.0608 0.384326,-0.19738 0,-0.10916 -0.05674,-0.14442 -0.355884,-0.22117 -0.383208,-0.0984 -0.496013,-0.16122 -0.578865,-0.32277 -0.103147,-0.20108 -0.02027,-0.43861 0.194385,-0.55727 0.111393,-0.0615 0.123971,-0.0636 0.392112,-0.0636 0.266336,0 0.281878,0.003 0.401922,0.0639 0.145356,0.0744 0.240368,0.19321 0.257685,0.32237 l 0.01118,0.0858 -0.173267,0.0154 c -0.09532,0.008 -0.175378,0.0126 -0.177978,0.008 -0.0028,-0.004 -0.02124,-0.0439 -0.04137,-0.0883 -0.0443,-0.0974 -0.135852,-0.1419 -0.292026,-0.1419 -0.19686,0 -0.314513,0.097 -0.254262,0.20952 0.02376,0.0446 0.112233,0.0762 0.482666,0.17308 0.348603,0.0911 0.500975,0.24447 0.500597,0.50368 -3.21e-4,0.21665 -0.138787,0.39577 -0.355968,0.46057 -0.158144,0.0472 -0.423083,0.0567 -0.580753,0.0208 z m -16.1126618,-0.8168 v -0.80549 h 0.6464977 0.6465261 v 0.13781 0.13781 H 9.9414155 9.4750746 v 0.18017 0.18018 h 0.4345439 0.4345445 v 0.13781 0.13781 H 9.9096185 9.4750746 v 0.2116 0.21157 l 0.4822319,0.006 0.4822455,0.006 0.007,0.1325 0.007,0.1325 H 9.7848084 9.1160879 Z m 1.6109758,0.0112 v -0.79491 h 0.180185 0.180158 v 0.65713 0.65712 h 0.434544 0.434557 v 0.13781 0.13781 h -0.614729 -0.614715 z m 1.483803,-0.0112 v -0.80549 h 0.646512 0.646512 v 0.13781 0.13781 h -0.466341 -0.46634 v 0.18017 0.18018 h 0.434544 0.434544 v 0.13781 0.13781 h -0.434544 -0.434544 v 0.21199 0.21197 h 0.476935 0.476948 v 0.13781 0.13781 h -0.657106 -0.65712 z m 3.751899,0.13781 v -0.6677 h -0.26498 -0.264953 v -0.13781 -0.13781 h 0.699497 0.699509 v 0.13781 0.13781 h -0.254372 -0.254358 v 0.6677 0.66773 H 16.141581 15.96141 Z m 1.081042,-0.13963 v -0.80732 l 0.545825,0.007 c 0.536852,0.007 0.547376,0.008 0.639328,0.0601 0.05143,0.0291 0.122714,0.0893 0.158339,0.13362 0.05506,0.0685 0.06611,0.10244 0.07296,0.22442 0.007,0.11572 -6.43e-4,0.16092 -0.03703,0.23225 -0.05478,0.10733 -0.191815,0.21117 -0.302019,0.22879 -0.04458,0.007 -0.08121,0.0212 -0.08121,0.0314 0,0.01 0.0098,0.0184 0.02166,0.0184 0.05031,0 0.21707,0.18642 0.379268,0.42386 l 0.173854,0.25447 -0.218509,-8.1e-4 -0.218495,-8e-4 -0.201625,-0.2794 c -0.234834,-0.32543 -0.296666,-0.37616 -0.458627,-0.37616 h -0.113489 v 0.32858 0.32855 h -0.18017 -0.180186 z m 0.932429,-0.15303 c 0.09113,-0.0312 0.136971,-0.11599 0.117822,-0.21803 -0.0225,-0.11992 -0.08065,-0.14189 -0.405738,-0.15291 l -0.284199,-0.01 v 0.20413 0.20415 l 0.249062,-0.001 c 0.13697,-6.5e-4 0.282339,-0.0126 0.323011,-0.0266 z m 2.692284,0.15488 v -0.8055 h 0.180086 0.18006 l 0.344563,0.52402 0.344549,0.52402 0.0056,-0.52402 0.0056,-0.52402 h 0.169214 0.1692 v 0.8055 0.8055 l -0.185469,-4.9e-4 -0.185482,-4.7e-4 -0.339155,-0.51138 -0.33914,-0.51136 -0.0056,0.51187 -0.0056,0.5119 h -0.169213 -0.1692 v -0.8055 z m 1.738161,0 v -0.8055 h 0.180186 0.18017 v 0.8055 0.8055 h -0.18017 -0.180186 z m -0.985652,-1.51736 c -0.534182,-0.0824 -0.957223,-0.27929 -1.289236,-0.5998 -0.517201,-0.49931 -0.685702,-1.2391 -0.500639,-2.1981 0.292906,-1.51781 1.453879,-2.53542 3.082899,-2.7022 0.2641,-0.027 0.737652,-0.0166 1.017462,0.0224 0.264841,0.0369 0.65666,0.11055 0.674396,0.1269 0.01523,0.014 -0.164337,1.11894 -0.185273,1.13986 -0.0042,0.004 -0.08624,-0.0163 -0.181458,-0.0465 -0.604149,-0.19083 -1.05211,-0.15145 -1.665665,0.14648 -0.178229,0.0865 -0.26343,0.14278 -0.354878,0.23422 -0.287958,0.28798 -0.50349,0.77982 -0.566343,1.29252 -0.0552,0.4501 0.05045,0.80451 0.31355,1.05173 0.174161,0.16368 0.309007,0.23924 0.526076,0.29476 0.308252,0.0788 0.593862,0.0506 1.075759,-0.10609 0.149647,-0.0486 0.276651,-0.084 0.282227,-0.0784 0.0056,0.006 -0.04514,0.28771 -0.11279,0.62696 l -0.122854,0.6168 -0.106361,0.0299 c -0.577188,0.16241 -1.385367,0.22607 -1.886914,0.14864 z M 11.361625,285.318 c 0,-0.0205 0.238468,-1.22946 0.529934,-2.6865 0.291452,-1.45703 0.529919,-2.65165 0.529919,-2.6547 0,-0.003 0.4256,-0.006 0.945736,-0.006 h 0.94575 l -0.0098,0.0477 c -0.0056,0.0263 -0.246462,1.23765 -0.536391,2.69203 l -0.527153,2.64434 h -0.939263 c -0.882716,0 -0.939265,-0.003 -0.939265,-0.0373 z m 3.972532,-0.021 c 0.007,-0.032 0.189034,-0.96447 0.405319,-2.07201 0.216315,-1.10756 0.39829,-2.03043 0.404425,-2.05083 0.0098,-0.0349 -0.03815,-0.037 -0.816983,-0.037 -0.688497,0 -0.828123,-0.006 -0.828123,-0.0292 0,-0.0161 0.05241,-0.2735 0.116564,-0.57212 0.06415,-0.29864 0.116565,-0.54784 0.116565,-0.55377 0,-0.006 1.173272,-0.0112 2.607249,-0.0112 2.071446,0 2.607333,0.006 2.60767,0.0266 2.37e-4,0.0145 -0.05464,0.27688 -0.121876,0.58291 l -0.122294,0.5564 -0.830471,1e-5 -0.830485,3e-5 -0.0225,0.11125 c -0.01258,0.0612 -0.194819,1.00255 -0.405431,2.09186 -0.210612,1.08931 -0.387709,1.98833 -0.393579,1.99782 -0.0056,0.01 -0.43534,0.0172 -0.954373,0.0172 h -0.943709 z m 0.669643,-8.74911 v -2.46947 h 0.551123 0.551122 v 2.46947 2.46947 H 16.554923 16.0038 Z m 1.811679,2.44332 c -0.0056,-0.0148 -0.0084,-1.1238 -0.0042,-2.46451 l 0.0056,-2.43769 h 0.551122 0.551122 v 2.45888 2.45886 l -0.546357,0.006 c -0.425626,0.004 -0.548606,-2.4e-4 -0.556572,-0.0212 z m 15.724171,-2.69852 c -0.273394,-0.0737 -0.527977,-0.26108 -0.687714,-0.50638 -0.281655,-0.4325 -0.212262,-1.02962 0.163287,-1.40519 0.312949,-0.31293 0.788681,-0.41738 1.196125,-0.26257 0.64742,0.24601 0.929872,0.98932 0.608984,1.60264 -0.08554,0.16353 -0.307468,0.38512 -0.472392,0.47168 -0.239012,0.1255 -0.564064,0.16561 -0.80829,0.0998 z m 0.592311,-0.1601 c 0.443028,-0.12831 0.74541,-0.61613 0.674479,-1.0881 -0.122713,-0.81608 -1.114571,-1.14549 -1.696637,-0.56342 -0.402384,0.40239 -0.392028,1.03494 0.02348,1.43124 0.270305,0.25781 0.610173,0.33279 0.998706,0.22028 z m -0.762741,-0.96782 0.0056,-0.58822 0.360342,3.2e-4 c 0.409889,3.9e-4 0.467948,0.0178 0.542554,0.16312 0.08862,0.17265 0.02655,0.34719 -0.155727,0.43764 l -0.10063,0.0499 0.05409,0.0425 c 0.05059,0.0398 0.293548,0.3826 0.320005,0.45155 0.0098,0.0249 -0.0084,0.0313 -0.0847,0.0313 h -0.09672 l -0.138787,-0.2104 c -0.182113,-0.27618 -0.21152,-0.29832 -0.396038,-0.29832 H 33.53367 v 0.25435 0.25437 h -0.08512 -0.08511 z m 0.620348,-0.0896 c 0.162659,-0.0377 0.210585,-0.18536 0.097,-0.29891 -0.06135,-0.0614 -0.06443,-0.0619 -0.307372,-0.0619 h -0.245385 v 0.19076 0.19079 l 0.185469,-4.8e-4 c 0.102028,-2.3e-4 0.223638,-0.01 0.270263,-0.0201 z"
       style="fill:#ffffff;fill-opacity:1;stroke-width:1.00000012" />
  </g>
</svg>
