<svg width="24" height="24" viewBox="0 0 24 24" fill="rgba(255, 255, 255, 1)" xmlns="http://www.w3.org/2000/svg">
    <g clip-path="url(#clip0)">
        <path d="M10.0639 18.8826C8.9 18.8826 7.95312 19.8294 7.95312 20.9933C7.95312 22.1572 8.9 23.104 10.0639 23.104C11.2277 23.104 12.1746 22.1572 12.1746 20.9933C12.1746 19.8294 11.2277 18.8826 10.0639 18.8826ZM10.0639 21.9254C9.54983 21.9254 9.13166 21.5072 9.13166 20.9932C9.13166 20.4792 9.54988 20.061 10.0639 20.061C10.5778 20.061 10.9961 20.4792 10.9961 20.9932C10.9961 21.5073 10.5778 21.9254 10.0639 21.9254Z" fill="white"/>
        <path d="M17.4672 18.8826C16.3033 18.8826 15.3564 19.8294 15.3564 20.9933C15.3564 22.1572 16.3033 23.104 17.4672 23.104C18.631 23.104 19.5779 22.1572 19.5779 20.9933C19.5779 19.8294 18.631 18.8826 17.4672 18.8826ZM17.4672 21.9254C16.9532 21.9254 16.535 21.5072 16.535 20.9932C16.535 20.4792 16.9532 20.061 17.4672 20.061C17.9812 20.061 18.3994 20.4792 18.3994 20.9932C18.3994 21.5073 17.9812 21.9254 17.4672 21.9254Z" fill="white"/>
        <path d="M17.9869 7.76978H9.54239C9.21694 7.76978 8.95312 8.03359 8.95312 8.35904C8.95312 8.6845 9.21698 8.94831 9.54239 8.94831H17.9869C18.3123 8.94831 18.5762 8.6845 18.5762 8.35904C18.5762 8.03354 18.3123 7.76978 17.9869 7.76978Z" fill="white"/>
        <path d="M17.5276 10.8298H10.0024C9.6769 10.8298 9.41309 11.0936 9.41309 11.4191C9.41309 11.7446 9.6769 12.0084 10.0024 12.0084H17.5275C17.853 12.0084 18.1168 11.7446 18.1168 11.4191C18.1168 11.0937 17.853 10.8298 17.5276 10.8298Z" fill="white"/>
        <path d="M23.7348 5.14429C23.5101 4.86847 23.1771 4.71032 22.8212 4.71032H4.46618L4.09549 2.91083C4.0181 2.53545 3.76207 2.22027 3.41046 2.06759L0.824037 0.944935C0.525443 0.815231 0.178427 0.952247 0.0489118 1.25075C-0.0807446 1.54934 0.0562711 1.89641 0.354724 2.02592L2.9412 3.14863L5.79242 16.989C5.90473 17.5341 6.39017 17.9297 6.94671 17.9297H21.0639C21.3893 17.9297 21.6531 17.6659 21.6531 17.3404C21.6531 17.015 21.3893 16.7512 21.0639 16.7512H6.94676L6.59993 15.0676H21.173C21.7295 15.0676 22.215 14.672 22.3273 14.1269L23.9755 6.12651C24.0473 5.77813 23.9595 5.42005 23.7348 5.14429ZM21.173 13.8892H6.35717L4.70899 5.8888L22.8212 5.88885L21.173 13.8892Z" fill="white"/>
    </g>
    <defs>
        <clipPath id="clip0">
            <rect width="24" height="24" fill="white"/>
        </clipPath>
    </defs>
</svg>
