<svg width="24" height="22" viewBox="0 0 24 22" fill="rgba(255, 255, 255, 1)" xmlns="http://www.w3.org/2000/svg">
    <path d="M12 21.6932C11.6583 21.6932 11.3289 21.5694 11.0722 21.3445C10.1027 20.4968 9.16791 19.7001 8.3432 18.9973L8.33899 18.9937C5.92108 16.9332 3.83313 15.1537 2.38037 13.4009C0.756409 11.4413 0 9.58331 0 7.55359C0 5.58154 0.676208 3.76221 1.90393 2.43048C3.1463 1.08301 4.85101 0.340881 6.70459 0.340881C8.08997 0.340881 9.3587 0.77887 10.4755 1.64258C11.0391 2.07855 11.5499 2.61212 12 3.2345C12.4503 2.61212 12.9609 2.07855 13.5247 1.64258C14.6415 0.77887 15.9102 0.340881 17.2956 0.340881C19.149 0.340881 20.8539 1.08301 22.0963 2.43048C23.324 3.76221 24 5.58154 24 7.55359C24 9.58331 23.2438 11.4413 21.6198 13.4007C20.1671 15.1537 18.0793 16.933 15.6617 18.9933C14.8356 19.6971 13.8994 20.4951 12.9276 21.3449C12.6711 21.5694 12.3415 21.6932 12 21.6932ZM6.70459 1.74677C5.24835 1.74677 3.91058 2.32794 2.93738 3.38336C1.94971 4.45471 1.4057 5.93567 1.4057 7.55359C1.4057 9.26068 2.04016 10.7874 3.46271 12.5038C4.83765 14.163 6.88275 15.9058 9.25067 17.9238L9.25507 17.9274C10.0829 18.6329 11.0213 19.4327 11.998 20.2867C12.9805 19.4311 13.9204 18.63 14.7499 17.9234C17.1176 15.9054 19.1625 14.163 20.5375 12.5038C21.9598 10.7874 22.5943 9.26068 22.5943 7.55359C22.5943 5.93567 22.0503 4.45471 21.0626 3.38336C20.0896 2.32794 18.7516 1.74677 17.2956 1.74677C16.2288 1.74677 15.2494 2.08588 14.3846 2.75458C13.6139 3.35077 13.077 4.10443 12.7623 4.63177C12.6004 4.90295 12.3155 5.06482 12 5.06482C11.6845 5.06482 11.3996 4.90295 11.2377 4.63177C10.9232 4.10443 10.3863 3.35077 9.61542 2.75458C8.75061 2.08588 7.77118 1.74677 6.70459 1.74677Z" fill="#3561A6"></path>
</svg>
