<svg width="49" height="49" viewBox="0 0 49 49" fill="rgba(255, 255, 255, 1)" xmlns="http://www.w3.org/2000/svg">
    <path d="M0.539519 0.709841C0.323521 0.813094 0.173154 0.981918 0.0889096 1.21631C-0.0330489 1.52607 -0.0237429 1.60094 0.126624 1.92C0.408255 2.47345 0.540009 2.51113 2.75632 2.51113C4.95403 2.51113 5.34831 2.57671 6.10896 3.08367C6.35337 3.2432 6.67222 3.55295 6.82259 3.76876C6.96365 3.97526 8.32527 6.95881 9.83726 10.393C11.3493 13.8273 14.4016 20.733 16.6087 25.7434C18.825 30.7631 20.6377 34.901 20.6377 34.948C20.6377 34.9857 20.3468 35.1638 19.9897 35.3326C18.2617 36.1303 16.9187 37.7158 16.2986 39.6678C16.017 40.578 15.9984 42.3797 16.2516 43.3271C17.0216 46.1325 19.3412 48.131 22.2623 48.4971C23.1449 48.6096 24.2347 48.4971 25.1737 48.2064C27.1833 47.5776 29.0244 45.7386 29.6533 43.7308C29.9256 42.849 30.0574 41.6854 29.9541 40.9533C29.8977 40.5124 29.907 40.2966 29.9727 40.2403C30.029 40.2026 33.1186 38.8706 36.8376 37.2846C40.6884 35.6424 43.6746 34.3197 43.7687 34.2071C44.2947 33.5881 43.8999 32.631 43.1114 32.631C42.8483 32.631 40.8857 33.4379 36.002 35.5303L29.2497 38.4204L28.7991 37.7544C28.5547 37.3884 28.3764 37.06 28.4141 37.0321C28.4519 36.9945 32.7532 35.0522 37.9651 32.7161C43.3465 30.2953 47.5729 28.3531 47.7326 28.2121C47.9579 28.0056 48.0049 27.8838 48.0049 27.6024C47.9956 27.3396 47.3285 25.7728 45.5535 21.8883C44.2105 18.9419 43.0364 16.3807 42.9429 16.1928C42.7455 15.7989 42.2479 15.5077 41.9192 15.5924C41.6371 15.657 21.6893 24.6272 21.417 24.8053C21.3043 24.8709 21.1632 25.0965 21.0976 25.3025C20.9943 25.6592 21.0129 25.7155 23.07 30.2287C24.2063 32.7435 25.1458 34.836 25.1458 34.8824C25.1458 34.9201 24.9204 34.901 24.6574 34.8262C24.3851 34.7508 23.8218 34.6666 23.3991 34.629L22.6385 34.5727L20.7322 30.2469C9.65947 5.16633 8.71123 3.0455 8.33556 2.54832C7.57491 1.53488 6.41949 0.849795 5.12349 0.633993C4.79484 0.587014 3.70554 0.540035 2.70049 0.540035C1.1405 0.541015 0.82115 0.568908 0.539519 0.709841ZM23.887 39.7524C24.366 39.9682 24.8073 40.5031 24.9577 41.0379C25.3804 42.5207 23.9624 43.9373 22.4783 43.515C21.5957 43.2713 21.0227 42.5016 21.0134 41.5635C21.0134 40.7942 21.4454 40.1185 22.1874 39.7338C22.5719 39.5273 23.408 39.5366 23.887 39.7524Z" fill="#3561A6"/>
    <path d="M23.6892 7.1183C18.9652 9.18236 15.4245 10.7869 15.2839 10.9186C15.1149 11.0781 15.0586 11.2376 15.0586 11.4911C15.0586 11.7539 15.7722 13.4147 17.6413 17.515C20.3743 23.5202 20.3743 23.5295 20.9939 23.5295C21.1159 23.5295 24.9103 21.9157 29.437 19.9358C36.6776 16.7829 37.6826 16.3141 37.833 16.0699C37.9363 15.9104 38.0113 15.6853 38.0113 15.5635C38.0113 15.2067 32.8459 3.91894 32.6113 3.7692C32.0946 3.43057 32.2356 3.3743 23.6892 7.1183Z" fill="#3561A6"/>
</svg>
